# xmcd CD database file
#
# Track frame offsets:
#	150
#	11658
#	25030
#	44623
#	57162
#	76217
#	88249
#	100089
#	115880
#	131121
#	142935
#	159277
#
# Disc length: 2335 seconds
#
# Revision: 0
# Processed by: cddbd v1.5.2PL0 Copyright (c) Steve Scherf et al.
# Submitted via: CDex 1.51
#
DISCID=93091d0c
DTITLE=The Pasadena Roof Orchestra - Crazy words, crazy tunes [digitalized LP]
DYEAR=1900
DGENRE=Jazz
TTITLE0=Nobody's sweetheart
TTITLE1=Button up your overcoat
TTITLE2=Star dust
TTITLE3=We're in the money
TTITLE4=Medley: Careless love - Gambler's blues
TTITLE5=Bugle call rag
TTITLE6=Crazy words, crazy tunes
TTITLE7=Walkin' my baby back home
TTITLE8=I never had a change
TTITLE9=San Antonio Rose
TTITLE10=So tired
TTITLE11=Medley: Down by the riverside - When the saints go marching in
EXTD=
EXTT0=
EXTT1=
EXTT2=
EXTT3=
EXTT4=
EXTT5=
EXTT6=
EXTT7=
EXTT8=
EXTT9=
EXTT10=
EXTT11=
PLAYORDER=
